/* XPM */
static char * stick_inactive_xpm[] = {
"18 28 4 1",
" 	c None",
".	c #EEEFF1",
"+	c #EEEEEE",
"@	c #B9BFCE",
"..................",
"++++++++++++++++++",
"++++++++++++++++++",
"++++++++++++++++++",
"++++++++++++++++++",
"++++++++++++++++++",
"++++++++++++++++++",
"++++++++++++++++++",
"++++++++++++++++++",
"++++++++++++++++++",
"++++++++@@++++++++",
"++++++++@@++++++++",
"++++++++@@++++++++",
"+++++@@@@@@@@+++++",
"+++++@@@@@@@@+++++",
"++++++++@@++++++++",
"++++++++@@++++++++",
"++++++++@@++++++++",
"++++++++++++++++++",
"++++++++++++++++++",
"++++++++++++++++++",
"++++++++++++++++++",
"++++++++++++++++++",
"++++++++++++++++++",
"++++++++++++++++++",
"++++++++++++++++++",
"++++++++++++++++++",
"++++++++++++++++++"};
